<svg version="1.2" xmlns="http://www.w3.org/2000/svg" viewBox="0 0 100 32" width="100" height="32">
	<title>Untitled-1</title>
	<style>
		.s0 { fill: #ffffff } 
	</style>
	<g>
		<path class="s0" d="m48.6 23.2q-1.9 0-3.2-0.6-1.4-0.6-2.2-1.7-0.8-1-0.9-2.3h3.7q0.1 0.4 0.4 0.9 0.3 0.4 0.9 0.7 0.5 0.2 1.3 0.2 0.7 0 1.2-0.2 0.5-0.2 0.7-0.6 0.2-0.3 0.2-0.7 0-0.6-0.3-0.9-0.4-0.3-1-0.5-0.6-0.2-1.5-0.4-1-0.2-1.9-0.4-0.9-0.3-1.7-0.8-0.7-0.4-1.1-1.1-0.5-0.6-0.5-1.6 0-1.2 0.7-2.2 0.6-1 1.9-1.6 1.2-0.5 2.9-0.5 2.5 0 4 1.1 1.4 1.1 1.7 3h-3.4q-0.2-0.6-0.8-1-0.5-0.3-1.5-0.3-0.9 0-1.4 0.3-0.6 0.4-0.6 0.9 0 0.4 0.4 0.7 0.3 0.3 0.9 0.5 0.7 0.2 1.6 0.4 1.5 0.4 2.7 0.8 1.2 0.4 1.9 1.2 0.7 0.7 0.7 2.2 0 1.3-0.7 2.3-0.7 1-2 1.6-1.3 0.6-3.1 0.6z"/>
		<path class="s0" d="m70.2 9.2l-8.4 19.7h-3.9l3.3-7.5h-1.7l-5.5-12.2h4l3.9 8.8 0.4 0.9 0.5-1 1.1-2.5 2.7-6.2z"/>
		<path class="s0" d="m71.2 22.9v-13.7h3.3l0.2 2.3q0.7-1.2 1.8-1.9 1.2-0.7 2.8-0.7 1.7 0 2.9 0.7 1.1 0.7 1.7 2.1 0.7 1.3 0.7 3.3v7.9h-3.7v-7.6q0-1.6-0.7-2.5-0.7-0.8-2.1-0.8-0.9 0-1.7 0.4-0.7 0.4-1.1 1.2-0.4 0.8-0.4 2v7.3h-3.6z"/>
		<path class="s0" d="m93.3 23.2q-2.1 0-3.7-0.9-1.6-0.9-2.5-2.5-0.8-1.6-0.8-3.7 0-2.1 0.8-3.8 0.9-1.6 2.5-2.5 1.6-0.9 3.7-0.9 2.6 0 4.4 1.3 1.8 1.4 2.3 3.8h-3.9q-0.2-0.9-1-1.4-0.7-0.6-1.8-0.6-1 0-1.7 0.5-0.8 0.5-1.2 1.4-0.4 0.9-0.4 2.1 0 1 0.2 1.7 0.3 0.8 0.7 1.3 0.4 0.5 1 0.8 0.6 0.3 1.4 0.3 0.7 0 1.3-0.3 0.5-0.2 0.9-0.7 0.4-0.4 0.6-1.1h3.9q-0.5 2.4-2.3 3.8-1.8 1.4-4.4 1.4z"/>
		<path class="s0" d="m18.9 9.5c-2.2-1.7-5.3-1.7-7.5 0l-1.7 1.3-0.1 0.1 3.7 2.8 0.1-0.1 0.7-0.5c0.6-0.5 1.4-0.5 2.1 0l9.5 7.2v4.6c0 1.4-1.1 2.5-2.4 2.5h-16.3c-1.4 0-2.5-1.1-2.5-2.5v-3l-4.5-3.4v6.4c0 3.9 3.1 7 7 7h16.3c3.8 0 6.9-3.1 6.9-7v-6.8z"/>
		<path class="s0" d="m11.4 22.5c2.2 1.7 5.3 1.7 7.5 0l1.7-1.3h0.1l-3.8-2.9v0.1l-0.7 0.5c-0.7 0.5-1.5 0.5-2.1 0l-9.6-7.2v-4.6c0-1.4 1.1-2.5 2.5-2.5h16.3c1.3 0 2.4 1.1 2.4 2.5v3l4.5 3.4v-6.4c0-3.9-3.1-7-6.9-7h-16.3c-3.9 0-7 3.1-7 7v6.8z"/>
	</g>
</svg>